<svg width="121" height="120" viewBox="0 0 121 120" fill="none" xmlns="http://www.w3.org/2000/svg">
<path d="M41.7525 50.07V54.375L54.8775 45L41.7525 36.5625V40.3987C36.4687 40.8835 31.5749 43.3859 28.0886 47.3859C24.6023 51.3858 22.7917 56.5755 23.0331 61.876C23.2745 67.1765 25.5495 72.1801 29.385 75.8465C33.2205 79.5129 38.3215 81.5601 43.6275 81.5625C48.3525 81.5625 54.8775 79.9012 58.6275 75.9375C63.315 70.5262 68.9025 56.8988 68.9025 56.8988L52.1625 67.7475C51.0333 69.0171 49.6202 70.0021 48.0382 70.6222C46.4562 71.2423 44.7501 71.4799 43.0589 71.3158C41.3677 71.1517 39.7392 70.5905 38.3059 69.6778C36.8727 68.7651 35.6753 67.5268 34.8113 66.0637C33.9485 64.5991 33.4443 62.9513 33.3397 61.2547C33.2352 59.5581 33.5333 57.8608 34.2097 56.3013C34.8862 54.7419 35.9217 53.3645 37.2319 52.2815C38.5422 51.1986 40.0936 50.4408 41.7525 50.07Z" fill="#FFC702"/>
<path d="M79.2496 69.9299V65.6249L66.1246 74.9999L79.2496 83.4374V79.6011C84.5334 79.1164 89.4272 76.6139 92.9135 72.614C96.3998 68.6141 98.2105 63.4244 97.969 58.1239C97.7276 52.8234 95.4526 47.8198 91.6171 44.1534C87.7816 40.4869 82.6806 38.4398 77.3746 38.4374C72.6496 38.4374 66.1246 40.0986 62.3746 44.0624C57.6871 49.4736 52.0996 63.1011 52.0996 63.1011L68.8396 52.2524C69.9679 50.9804 71.3811 49.9932 72.9637 49.3716C74.5464 48.75 76.2536 48.5116 77.946 48.6758C79.6384 48.8399 81.2679 49.402 82.7016 50.3162C84.1353 51.2304 85.3324 52.4707 86.1952 53.9359C87.058 55.401 87.562 57.0495 87.6661 58.7466C87.7702 60.4437 87.4714 62.1414 86.7941 63.7011C86.1169 65.2607 85.0803 66.638 83.7691 67.7205C82.4579 68.8031 80.9092 69.5601 79.2496 69.9299Z" fill="#FFC702"/>
<circle cx="60.5" cy="60" r="60" fill="#FCEBA3" fill-opacity="0.29"/>
</svg>
