<svg width="121" height="120" viewBox="0 0 121 120" fill="none" xmlns="http://www.w3.org/2000/svg">
<circle cx="60.5" cy="60" r="60" fill="#C0FF9A" fill-opacity="0.25"/>
<path d="M56.8588 24.5253C57.9727 23.9066 59.2258 23.582 60.5 23.582C61.7742 23.582 63.0273 23.9066 64.1412 24.5253L92.3225 40.1778C92.9068 40.5027 93.3935 40.9778 93.7324 41.5541C94.0713 42.1304 94.25 42.7867 94.25 43.4553V74.3365C94.2504 75.6746 93.8927 76.9883 93.2142 78.1416C92.5357 79.2949 91.561 80.2456 90.3913 80.8953L64.1412 95.4752C63.0273 96.0939 61.7742 96.4185 60.5 96.4185C59.2258 96.4185 57.9727 96.0939 56.8588 95.4752L30.6087 80.8915C29.4401 80.2425 28.4661 79.2929 27.7877 78.1411C27.1092 76.9893 26.751 75.677 26.75 74.3403V43.4553C26.75 42.7867 26.9287 42.1304 27.2676 41.5541C27.6065 40.9778 28.0932 40.5027 28.6775 40.1778L56.8588 24.5253Z" stroke="#7FBCB4" stroke-width="6" stroke-linecap="round" stroke-linejoin="round"/>
<path d="M43.625 31.8751L77.375 50.6251V63.7501M38 61.2301L49.25 67.5001" stroke="#7FBCB4" stroke-width="6" stroke-linecap="round" stroke-linejoin="round"/>
<path d="M26.75 41.2501L60.5 60.0001M60.5 60.0001L94.25 41.2501M60.5 60.0001V95.6251" stroke="#7FBCB4" stroke-width="6" stroke-linejoin="round"/>
</svg>
