<svg width="69" height="69" viewBox="0 0 69 69" fill="none" xmlns="http://www.w3.org/2000/svg">
<circle cx="34.5" cy="34.5" r="34" fill="#E38691" fill-opacity="0.2" stroke="#E4253A"/>
<path d="M19.3854 50.1443C20.0769 50.1443 20.6374 49.762 20.6374 49.2904C20.6374 48.8188 20.0769 48.4365 19.3854 48.4365C18.6939 48.4365 18.1333 48.8188 18.1333 49.2904C18.1333 49.762 18.6939 50.1443 19.3854 50.1443Z" fill="#FD6D7D"/>
<path d="M56.063 45.0433L55.5929 44.7673C55.557 44.7465 51.9654 42.6154 51.0727 40.0293L50.8736 39.4565L50.5056 39.9373C50.4941 39.9524 49.9838 40.5835 48.5556 41.3238C47.4984 35.3057 43.9017 28.1211 39.1752 25.0578C40.5265 25.167 41.8821 25.0549 43.1902 24.5791C43.9779 24.293 43.638 23.0093 42.843 23.2997C41.7706 23.69 40.6961 23.7964 39.6237 23.7417C42.2565 21.3289 44.3236 17.6309 44.3236 14.927C44.3236 14.2773 44.3236 13.0676 43.3605 13.0676C42.9738 13.0676 42.6612 13.3091 42.2292 13.6426C41.5665 14.1536 40.566 14.927 39.0962 14.927C38.5363 14.927 37.5113 14.3362 36.6876 13.8618C35.6922 13.289 35.0561 12.9375 34.5213 12.9375C33.6358 12.9375 32.3342 13.6534 31.1856 14.2852C30.7184 14.5417 30.0795 14.8939 29.9472 14.9277C28.2826 14.9277 27.3159 14.1601 26.6747 13.6519C26.301 13.3544 26.03 13.1387 25.6685 13.1387C24.7212 13.1387 24.7212 14.2751 24.7212 15.5911C24.7212 18.1312 26.6561 21.4842 29.1896 23.7374C27.5933 23.8517 26.0192 24.334 24.9131 25.4057C24.3021 25.9965 25.2279 26.9337 25.8367 26.3443C26.756 25.4531 27.9613 25.0714 29.2507 24.9974C29.2874 25.1289 29.332 25.2583 29.3866 25.3855C23.9845 29.2675 20.1471 38.4855 20.1471 44.7084C20.1471 45.3222 20.1945 45.8778 20.2678 46.4011C18.8749 45.7822 18.3667 45.2396 18.3566 45.2273L17.9858 44.7997L17.8032 45.3388C16.9961 47.7135 13.4871 49.7734 13.4519 49.7943L12.938 50.0926L13.4605 50.375C13.6438 50.4742 13.8256 50.5612 14.0089 50.6553L13.6783 50.8846L13.853 53.0696L27.5473 56.0625L32.7395 52.7412C33.2635 52.744 33.794 52.7455 34.3337 52.7455L40.4029 56.0625L54.1231 51.75V49.4435L53.7601 49.2257C53.9412 49.1107 54.1224 48.9936 54.3028 48.8728L54.7836 48.5516L54.678 48.4998L55.2896 48.3323L55.3931 45.9346L55.0395 45.6838C55.2278 45.5709 55.4154 45.4559 55.6037 45.3366L56.063 45.0433ZM26.0286 15.5911C26.0286 15.272 26.0329 15.0233 26.0394 14.83C26.1493 14.9162 26.2773 15.0104 26.4138 15.1074C26.8329 16.1108 27.6256 17.5555 28.9697 18.4654C30.6027 19.5723 30.3856 18.3001 31.2568 17.1386C32.1279 15.9778 32.7173 15.3698 34.1763 18.3554C34.8124 19.6571 35.8726 16.0195 36.8803 15.4883C37.1469 15.6335 37.4129 15.7687 37.6738 15.8837C39.4807 18.8219 40.3181 17.9055 41.923 15.4632C42.3643 15.2044 42.7266 14.927 43.0148 14.7049C43.0162 14.7718 43.0177 14.8458 43.0177 14.9284C43.0177 17.2356 41.1324 20.5447 38.8238 22.7032C38.7148 22.4261 38.5587 22.1701 38.3623 21.9463C37.4301 20.8905 35.9732 22.0613 35.2825 22.8297C34.057 22.4358 32.0603 21.3512 30.7594 21.9722C30.4354 22.1225 30.1378 22.3242 29.8782 22.5695C27.7507 20.6303 26.0286 17.8307 26.0286 15.5911ZM37.6752 23.4787C37.3529 23.4104 37.0325 23.3337 36.7142 23.2487C37.1153 22.903 37.4833 22.7822 37.6378 23.2961C37.6544 23.3522 37.6644 23.4162 37.6752 23.4787ZM32.2127 23.925C31.9748 23.8798 31.7304 23.8388 31.4789 23.8064C31.2881 23.6869 31.1014 23.561 30.919 23.4291C31.5759 22.9885 32.7086 23.2228 33.7911 23.5901C33.2571 23.644 32.7302 23.7604 32.2127 23.925ZM32.539 25.8225C32.1365 25.9232 31.6981 25.8829 31.3193 25.732C31.4731 25.6508 31.6284 25.5803 31.7836 25.5092C32.0352 25.6306 32.2867 25.732 32.539 25.8225ZM19.2443 52.0224C17.53 51.5259 15.8666 50.8682 14.2763 50.0581C15.2516 49.4169 17.3763 47.8666 18.2402 46.0036C18.8325 46.4686 20.1995 47.3167 22.8618 47.9679C22.8165 48.0412 22.7611 48.1196 22.708 48.1965C20.4353 47.6014 19.143 46.8488 19.1221 46.8359L18.8087 46.649L18.6585 46.9847C18.4609 47.4246 17.9973 47.4907 17.7392 47.4907C17.6674 47.4907 17.6192 47.4857 17.6127 47.4849L17.3561 47.4476L17.2627 47.6934C17.0715 48.1951 16.2866 48.8506 15.9991 49.0612L15.519 49.4133L16.0681 49.6383C16.2723 49.7217 16.3276 49.7986 16.3305 49.8187C16.3377 49.8683 16.2507 49.9991 16.158 50.0746L15.7397 50.4117L16.2263 50.6367C17.2232 51.0967 18.3523 51.4776 19.4815 51.7917C19.3916 51.8801 19.314 51.9556 19.2443 52.0224ZM25.0403 49.3443C26.0451 49.4852 27.1585 49.5743 28.3746 49.5743H28.3753C28.6283 49.5743 28.8849 49.57 29.1465 49.5621C29.1639 49.6164 29.1889 49.6679 29.2206 49.7152C29.2845 49.8122 29.3708 49.8927 29.48 49.9553L27.6458 51.5229C27.6108 51.5214 27.5758 51.5206 27.5408 51.5207C26.7236 51.5207 26.1141 51.8212 25.8216 52.3559C24.7132 52.2145 23.61 52.0355 22.5139 51.819C23.395 51.0349 24.2381 50.2091 25.0403 49.3443ZM16.8832 50.2047C16.9551 50.0688 17.0018 49.9043 16.9766 49.7246C16.9528 49.5625 16.875 49.4131 16.756 49.3005C17.0787 49.0238 17.5236 48.5968 17.768 48.1548C18.3236 48.1469 18.7821 47.9363 19.0711 47.564C19.5577 47.8184 20.6538 48.3323 22.2731 48.778C21.6111 49.6081 20.7192 50.5497 20.0256 51.2498C18.9446 50.9637 17.8557 50.6187 16.8832 50.2047ZM27.1261 53.2299L26.9788 53.2306C26.3599 53.2306 24.3093 53.1803 21.6004 52.6161C21.6952 52.5356 21.7937 52.4529 21.885 52.3739C24.0829 52.8332 25.8554 53.0301 25.9883 53.0452L26.2514 53.0732L26.3326 52.8181C26.5101 52.2675 27.1649 52.1863 27.5401 52.1863C27.6429 52.1863 27.7112 52.1927 27.7191 52.1935L27.8585 52.2086L31.0447 49.4859L30.193 49.4579C29.9084 49.4478 29.7884 49.3839 29.7589 49.34L29.9393 48.8678L29.4405 48.8887C29.0768 48.9045 28.7217 48.9124 28.3746 48.9124C27.3712 48.9124 26.4397 48.8462 25.5794 48.742L25.7792 48.5063C27.5157 48.7384 29.595 48.8815 32.1056 48.8635C31.5062 49.7044 30.0112 51.492 27.1261 53.2299ZM34.3309 50.1069V51.4187C33.9219 51.4187 33.5237 51.4172 33.1341 51.4143L33.017 49.938L32.0438 50.0171C32.6993 49.2423 32.9789 48.7255 33.0041 48.6788L33.2678 48.18L32.7108 48.19C27.3791 48.2878 23.9018 47.6524 21.7067 46.9466C21.5465 46.2983 21.4537 45.5652 21.4537 44.7091C21.4537 38.8707 25.1848 30.0459 30.1384 26.4694C31.016 27.3182 32.3471 27.6898 33.6121 26.864C33.8896 26.6829 34.1311 26.4457 34.3575 26.1934C34.4114 26.1948 34.4667 26.2071 34.5213 26.2071C34.7025 26.2071 34.8865 26.192 35.0697 26.169C35.3019 26.2617 35.529 26.3551 35.7396 26.4478C36.748 26.892 37.6091 26.616 38.197 26.0037C42.7345 28.7493 46.3699 36.0122 47.3266 41.883C45.2523 42.7124 41.9618 43.5217 36.9119 43.6641C37.9081 43.0948 38.6556 42.1374 38.3868 40.8796C38.1043 39.5499 36.9931 39.1762 35.8424 39.1151C35.8395 38.4905 35.8395 37.8673 35.8438 37.2428C36.1967 37.3987 36.5353 37.5784 36.8429 37.7703C37.3863 38.1117 37.8779 37.2269 37.3381 36.8855C36.8701 36.5913 36.3705 36.3504 35.8489 36.1675C35.8561 35.4444 35.8596 34.7228 35.8596 34.0012C35.8604 33.3399 34.8778 33.3399 34.8778 34.0012C34.8778 34.6358 34.8735 35.2698 34.8678 35.903C34.3448 35.8119 33.8108 35.8029 33.2851 35.8764C33.1996 35.4007 33.096 34.9283 32.9746 34.4605C32.8121 33.8237 31.8634 34.0932 32.028 34.7322C32.1487 35.1914 32.2472 35.6486 32.3284 36.1122C32.2867 36.128 32.2415 36.1359 32.2005 36.1546C30.8694 36.6814 30.0572 38.0247 31.0311 39.2775C31.4846 39.8612 32.0776 40.0969 32.7266 40.1752C32.7618 41.0399 32.7841 41.9053 32.8093 42.7692C32.3744 42.4868 31.9784 42.1245 31.6197 41.7414C31.1756 41.2728 30.482 41.9966 30.9254 42.4645C31.5285 43.1063 32.1617 43.5915 32.8481 43.902C32.879 44.6401 32.9228 45.3804 32.9947 46.115C33.058 46.7669 34.0412 46.7705 33.9772 46.115C33.9167 45.4796 33.8718 44.8429 33.8428 44.2053C34.2166 44.27 34.609 44.2865 35.0259 44.247C35.0726 44.9269 35.1272 45.6068 35.2049 46.2868C35.2494 46.6763 35.6217 46.8294 35.8963 46.7504L35.8352 48.162C35.4025 48.2008 34.9612 48.2367 34.5012 48.2669L33.9535 48.3029L34.2453 48.7744C34.2748 48.8218 34.6061 49.3458 35.3457 50.1084H34.3309V50.1069ZM52.2191 45.3761C51.3156 45.8009 50.1728 46.1905 49.0085 46.5304C48.2926 45.7908 47.3769 44.804 46.6934 43.9286C48.2164 43.4671 49.0688 42.9913 49.4534 42.7347C49.7574 43.0028 50.1599 43.1423 50.6364 43.1415C50.7946 43.1415 50.9347 43.1264 51.0425 43.1092C51.3875 43.5562 51.9438 44.0723 52.2917 44.3807C52.1271 44.5496 52.0473 44.7364 52.0538 44.9384C52.0596 45.1109 52.1286 45.2575 52.2191 45.3761ZM47.0765 47.7379C47.2231 47.8673 47.3747 47.9996 47.5293 48.1332C44.6155 48.9059 42.447 48.99 41.9748 48.9979C38.9575 47.1572 37.3935 45.2094 36.7904 44.3325C39.3154 44.2693 41.4026 44.0407 43.1435 43.7259C43.2143 43.8128 43.2859 43.8991 43.3584 43.9846C41.9592 44.2025 40.549 44.3424 39.1343 44.4037L38.5542 44.4281L38.8734 44.9161C38.8726 44.9168 38.808 45.0376 38.3796 45.121L37.6831 45.2568L41.1072 48.029L41.2668 47.9859C41.2704 47.9852 41.5723 47.904 41.9374 47.904C42.4642 47.904 42.8243 48.0643 43.0055 48.3776L43.1205 48.576L43.344 48.5365C44.596 48.3082 45.8407 48.0419 47.0765 47.7379ZM36.9442 45.6255L36.1263 45.581C36.0882 45.1727 36.0501 44.7645 36.0214 44.3562C36.1651 44.5948 36.4598 45.0433 36.9442 45.6255ZM35.9322 42.9942C35.8851 42.0267 35.8566 41.0583 35.8467 40.0897C35.9646 40.094 36.081 40.1048 36.1917 40.1206C37.4625 40.3132 37.7945 41.7263 36.8026 42.5212C36.5439 42.7261 36.2456 42.8763 35.9322 42.9942ZM43.4353 47.8472C43.1133 47.4497 42.6008 47.2413 41.9381 47.2413C41.6614 47.2413 41.4177 47.2787 41.2639 47.3088L39.1113 45.5644C39.2902 45.4617 39.411 45.3316 39.4771 45.172C39.4934 45.1323 39.5059 45.0911 39.5145 45.0491C41.2208 44.9557 42.6583 44.7853 43.8737 44.5769C44.4631 45.2345 45.3292 46.1416 46.4777 47.196C45.0668 47.5317 43.8902 47.7617 43.4353 47.8472ZM34.8635 40.1156C34.8771 41.1571 34.903 42.2014 34.9583 43.2422C34.8656 43.2565 34.7743 43.2745 34.6831 43.2838C34.374 43.3191 34.0807 43.2932 33.8019 43.2228C33.7666 42.2165 33.7436 41.2081 33.7055 40.2011C34.0922 40.1832 34.484 40.1451 34.8635 40.1156ZM33.656 39.2064C33.6111 38.4166 33.5367 37.6288 33.4331 36.8446C33.9095 36.7791 34.394 36.8037 34.8613 36.9172C34.8561 37.6519 34.855 38.3868 34.8577 39.1216C34.5422 39.1388 34.2425 39.169 33.9787 39.1927C33.8713 39.2011 33.7637 39.2057 33.656 39.2064ZM32.6698 39.0806C32.6087 39.0641 32.5484 39.0511 32.4858 39.0303C32.1982 38.9328 31.9379 38.7685 31.7261 38.5509C31.1123 37.978 31.9547 37.416 32.4858 37.1493C32.5692 37.789 32.6267 38.4344 32.6698 39.0806ZM40.6027 53.0718C37.4826 51.4776 35.8086 49.7059 35.1438 48.8851C35.6217 48.8491 36.0738 48.806 36.5216 48.7607L41.6377 52.0813L52.8574 48.9993C47.0714 52.4867 41.3552 53.0179 40.6027 53.0718ZM49.8688 47.4008C49.7768 47.3088 49.6668 47.1996 49.5367 47.0681C50.8132 46.6814 52.048 46.2329 52.9688 45.7398L53.5287 45.4387L52.9609 45.1497C52.8336 45.0843 52.7093 44.9643 52.7071 44.919C52.7086 44.9017 52.7589 44.8097 52.9767 44.6847L53.3921 44.4461L53.0227 44.1384C53.0112 44.1291 51.859 43.1724 51.4544 42.5565L51.3207 42.3552L51.0914 42.4221C51.0892 42.4221 50.8923 42.4788 50.6364 42.4788C50.2411 42.4796 49.945 42.3502 49.7552 42.0958L49.5454 41.8176L49.2823 42.044C49.2686 42.0555 48.4543 42.7232 46.27 43.3543C46.1981 43.2507 46.1288 43.1452 46.0623 43.038C48.7109 42.2352 50.0643 41.2634 50.6508 40.7316C51.5924 42.7685 53.8341 44.4094 54.8073 45.0527C53.2439 45.9988 51.5894 46.7854 49.8688 47.4008Z" fill="#FD6D7D"/>
<path d="M43.3993 45.3652C42.6827 45.1704 41.8741 45.3034 41.591 45.6591C41.3099 46.0164 41.665 46.4663 42.3809 46.6625C43.0982 46.8573 43.906 46.7236 44.1892 46.3671C44.4703 46.0099 44.1166 45.5614 43.3993 45.3652Z" fill="#FD6D7D"/>
</svg>
