<svg width="62" height="92" viewBox="0 0 62 92" fill="none" xmlns="http://www.w3.org/2000/svg">
<g clip-path="url(#clip0_1_528)">
<path d="M10.0041 71.8713C10.0041 71.8713 18.7851 72.819 17.1336 76.2854C15.485 79.748 9.68453 74.2381 8.0093 72.3613L10.0013 71.8752L10.0041 71.8713Z" fill="#FFCD06"/>
<path d="M4.41669 65.6907C4.41669 65.6907 -1.30931 57.7748 2.31302 56.5441C5.93814 55.3096 5.69063 63.326 5.69063 63.326L4.41276 65.6879L4.41669 65.6907Z" fill="#FFCD06"/>
<path d="M13.7741 51.6284C13.7741 51.6284 19.4908 48.6132 20.6226 51.0594C21.7544 53.5056 15.9062 55.7409 11.9156 53.8473L13.7741 51.6284Z" fill="#FFCD06"/>
<path d="M16.1485 47.7322C16.1485 47.7322 9.79654 43.1937 12.4436 40.4446C15.0906 37.6954 17.1682 46.6873 17.1682 46.6873L16.1485 47.7322Z" fill="#FFCD06"/>
<path d="M-0.421875 45.7881C-0.421875 45.7881 -10.6751 65.8971 -1.92443 73.7928" stroke="#212421" stroke-width="2.63" stroke-miterlimit="10"/>
<path d="M28.3585 31.6508C28.3585 31.6508 19.5086 41.4776 12.365 53.3039C5.22145 65.1302 -3.5518 76.3123 -3.5518 76.3123" stroke="#212421" stroke-width="2.63" stroke-miterlimit="10"/>
<path d="M25.7006 23.9358C25.7006 23.9358 20.0885 11.1239 28.814 9.49009C37.5423 7.85239 33.9187 20.8931 32.465 23.0939C32.465 23.0939 40.0483 15.0814 46.1333 21.0488C52.2184 27.0163 36.7699 29.758 36.7699 29.758C36.7699 29.758 50.0821 30.0062 47.5942 38.5323C45.1064 47.0583 33.957 39.5533 33.029 37.2705C33.029 37.2705 35.1923 49.6991 27.6366 49.0475C20.0809 48.3958 23.3791 39.0596 24.8328 36.8588C24.8328 36.8588 19.1791 44.2815 12.8661 38.1512C6.5491 32.018 18.1208 29.9823 20.5025 30.0643C20.5025 30.0643 8.0984 26.7584 9.97764 21.037C11.8569 15.3155 21.6198 17.4318 25.6967 23.933L25.7006 23.9358Z" fill="#F2B1B7"/>
<path d="M33.5333 26.9252C33.5333 26.9252 41.1456 21.4813 41.6863 22.6774C42.2269 23.8736 33.5237 28.077 33.5237 28.077L33.5333 26.9252Z" fill="#695154"/>
<path d="M35.541 32.6987C35.541 32.6987 45.3539 35.1937 43.9399 36.4415C42.5258 37.6893 34.7608 33.7906 34.7608 33.7906L35.541 32.6987Z" fill="#695154"/>
<path d="M28.4395 36.0486C28.4395 36.0486 25.2602 43.6728 27.3617 45.0028C29.4631 46.3329 29.5095 35.7727 29.5095 35.7727L28.4395 36.0486Z" fill="#695154"/>
<path d="M23.2844 32.2772C23.0525 32.1115 14.0383 34.9636 15.1298 36.0036C16.2214 37.0436 23.5742 33.0931 23.5742 33.0931L23.2844 32.2772Z" fill="#695154"/>
<path d="M22.5458 25.5005C22.5458 25.5005 13.4675 19.5343 13.7171 21.0131C13.9666 22.4919 22.3185 26.5499 22.3185 26.5499L22.5486 25.4965L22.5458 25.5005Z" fill="#695154"/>
<path d="M27.7318 23.129C27.5169 23.0641 27.4322 12.3217 29.088 12.813C30.7465 13.3005 28.7956 23.7176 28.7956 23.7176L27.7318 23.129Z" fill="#695154"/>
<path d="M27.6105 22.4028C35.3422 23.2984 41.3887 37.4552 29.6573 36.9472C17.926 36.4393 19.8788 21.5072 27.6105 22.4028Z" fill="#413130"/>
<path d="M25.893 24.2738C32.2615 22.5402 36.7194 31.7904 31.4912 34.8531C24.5895 38.8954 19.5273 26.0035 25.893 24.2738Z" stroke="#695154" stroke-width="1.97" stroke-miterlimit="10"/>
<path d="M-3.23506 48.9514C-3.23506 48.9514 -8.51652 54.6065 -11.2962 50.5278C-14.0759 46.4491 -6.61815 45.4347 -5.17091 45.6943C-5.17091 45.6943 -10.9462 43.5896 -9.25846 39.1915C-7.57068 34.7933 -2.73083 42.0465 -2.73083 42.0465C-2.73083 42.0465 -5.56908 35.2244 -0.6687 34.6232C4.23168 34.022 2.89047 41.3337 1.93458 42.306C1.93458 42.306 7.79211 38.4871 9.14226 42.4725C10.4924 46.4579 4.99548 46.8221 3.54824 46.5624C3.54824 46.5624 8.59182 47.8133 6.87518 52.3681C5.15461 56.9202 1.53678 51.48 1.04936 50.251C1.04936 50.251 2.12893 57.2825 -1.2053 57.5781C-4.53952 57.8737 -5.63956 52.4413 -3.23227 48.9475L-3.23506 48.9514Z" fill="#F2B1B7"/>
<path d="M-0.957832 42.0312C-0.957832 42.0312 -1.87134 36.4957 -0.918322 36.9402C0.0318988 37.3885 -0.22631 42.1874 -0.22631 42.1874L-0.957832 42.0312Z" fill="#695154"/>
<path d="M2.33658 44.9101C2.33658 44.9101 6.93634 44.8625 7.14231 43.5023C7.35221 42.1448 1.9549 44.4305 1.9549 44.4305L2.33378 44.914L2.33658 44.9101Z" fill="#695154"/>
<path d="M1.5608 48.3572C1.52801 48.5111 4.9927 52.4703 5.27606 51.6915C5.56221 50.9087 1.91065 48.0337 1.91065 48.0337L1.558 48.3611L1.5608 48.3572Z" fill="#695154"/>
<path d="M-1.73297 50.214C-1.73297 50.214 -2.75219 56.1362 -2.05044 55.6858C-1.34869 55.2355 -1.14048 50.0994 -1.14048 50.0994L-1.72624 50.2129L-1.73297 50.214Z" fill="#695154"/>
<path d="M-4.43795 48.3165C-5.70481 44.1897 0.170615 38.019 2.52686 44.0947C4.8831 50.1704 -3.16715 52.4462 -4.43795 48.3165Z" fill="#413130"/>
<path d="M-3.1015 48.781C-5.40555 45.9229 -1.68091 41.6323 1.04707 43.6228C4.64601 46.2474 -0.800253 51.6429 -3.1015 48.781Z" stroke="#695154" stroke-width="1.97" stroke-miterlimit="10"/>
<path d="M0.289222 71.2771C0.289222 71.2771 17.7029 76.5545 30.1366 57.9974" stroke="#212421" stroke-width="2.63" stroke-miterlimit="10"/>
<path d="M21.6472 63.6131C21.6472 63.6131 13.8867 63.489 15.036 58.7061C16.1852 53.9233 21.9687 58.7589 22.7527 60.0049C22.7527 60.0049 20.4152 54.3268 24.8161 52.6297C29.217 50.9327 27.1041 59.366 27.1041 59.366C27.1041 59.366 30.2449 52.7016 34.0037 55.9252C37.7557 59.1498 31.4312 63.0489 30.0662 62.9899C30.0662 62.9899 36.8542 64.7659 34.8112 68.4314C32.7682 72.0969 28.7879 68.2776 28.0038 67.0316C28.0038 67.0316 30.4821 71.5985 25.9423 73.3737C21.4054 75.1449 22.9947 68.8321 23.5795 67.6479C23.5795 67.6479 19.0912 73.1486 16.6206 70.8809C14.15 68.6132 17.4336 64.1671 21.65 63.6092L21.6472 63.6131Z" fill="#F2B1B7"/>
<path d="M24.9399 60.3503C24.9399 60.3503 23.9061 55.249 24.6357 55.25C25.3652 55.2511 25.5208 60.6175 25.5208 60.6175L24.9399 60.3503Z" fill="#695154"/>
<path d="M28.3159 60.6695C28.3159 60.6695 31.8077 56.2893 32.1186 57.2918C32.4295 58.2942 28.6951 61.3188 28.6951 61.3188L28.3199 60.6723L28.3159 60.6695Z" fill="#695154"/>
<path d="M28.4028 65.0285C28.4028 65.0285 31.5428 68.3951 32.6942 67.6395C33.8457 66.8838 28.5042 64.4211 28.5042 64.4211L28.4028 65.0285Z" fill="#695154"/>
<path d="M25.327 66.7629C25.192 66.8438 24.592 72.0546 25.3619 71.7416C26.1357 71.4314 25.8009 66.806 25.8009 66.806L25.3203 66.764L25.327 66.7629Z" fill="#695154"/>
<path d="M21.725 65.5727C21.725 65.5727 16.6424 68.7807 17.4498 68.997C18.2571 69.2132 22.2041 65.9327 22.2041 65.9327L21.7223 65.5766L21.725 65.5727Z" fill="#695154"/>
<path d="M21.6991 62.4026C21.6146 62.4959 16.1599 60.0587 16.7776 59.3355C17.402 58.6112 22.2361 62.0001 22.2361 62.0001L21.6991 62.4026Z" fill="#695154"/>
<path d="M21.3044 62.2982C23.5078 58.5995 32.0513 58.8159 29.1359 64.6247C26.2206 70.4334 19.0983 66.0008 21.3044 62.2982Z" fill="#413130"/>
<path d="M21.8628 63.595C22.4278 59.9789 28.126 59.8649 28.4902 63.2109C28.9731 67.6289 21.2978 67.211 21.8628 63.595Z" stroke="#695154" stroke-width="1.97" stroke-miterlimit="10"/>
<path d="M9.347 72.2692C9.347 72.2692 14.4 73.4735 16.0039 75.5416L9.347 72.2692Z" fill="#212421"/>
<path d="M4.69828 64.5976C4.69828 64.5976 5.18824 59.8816 2.99609 58.0552C2.99609 58.0552 4.82706 63.0462 4.69828 64.5976Z" fill="#212421"/>
<path d="M12.3611 53.3012C12.3611 53.3012 17.8414 50.4424 19.7242 51.4802C19.7242 51.4802 14.5375 52.2079 12.3611 53.3012Z" fill="#212421"/>
<path d="M13.041 40.9717C13.041 40.9717 16.5142 43.8138 16.423 46.8167C16.423 46.8167 14.1074 41.7809 13.041 40.9717Z" fill="#212421"/>
</g>
<defs>
<clipPath id="clip0_1_528">
<rect width="53" height="75" fill="white" transform="translate(18.6016) rotate(35.5455)"/>
</clipPath>
</defs>
</svg>
