<svg width="134" height="220" viewBox="0 0 134 220" fill="none" xmlns="http://www.w3.org/2000/svg">
<g clip-path="url(#clip0_1_322)">
<path d="M-1.65279 178.666C-1.65279 178.666 18.1522 140.77 47.7245 152.274C47.7245 152.274 23.2897 198.81 -1.65279 178.666Z" stroke="#017755" stroke-width="3.29" stroke-miterlimit="10"/>
<path d="M47.717 152.268C46.9241 152.291 46.1322 152.35 45.3435 152.422C21.9287 154.66 0.0191345 178.107 0.0191345 178.107C0.0191345 178.107 34.6167 168.56 45.0762 152.68" stroke="#017755" stroke-width="1.97" stroke-miterlimit="10"/>
<path d="M9.07061 144.854C9.07061 144.854 21.7799 104.027 -7.28061 91.3098C-7.28061 91.3098 -22.8139 141.53 9.07061 144.854Z" stroke="#017755" stroke-width="3.29" stroke-miterlimit="10"/>
<path d="M-7.28125 91.3101C-6.73469 91.8881 -6.21253 92.4863 -5.70946 93.0962C9.29699 111.208 8.27289 143.282 8.27289 143.282C8.27289 143.282 -9.50057 112.1 -5.69594 93.4704" stroke="#017755" stroke-width="1.97" stroke-miterlimit="10"/>
<path d="M57.0538 83.7886C57.0538 83.7886 -9.70146 147.177 -2.68943 195.513" stroke="#212421" stroke-width="2.63" stroke-miterlimit="10"/>
<path d="M-22.916 122.732C-22.916 122.732 -24.5238 164.823 -3.42877 187.607" stroke="#212421" stroke-width="2.63" stroke-miterlimit="10"/>
<path d="M57.1086 115.512C61.2613 108.426 60.574 95.3132 60.5301 94.4599C60.5804 95.3408 61.5259 109.04 67.747 115.14C74.182 121.445 89.6045 129.79 89.6045 129.79C89.6045 129.79 87.8927 109.889 82.7043 100.424C77.7466 91.363 66.7795 87.3411 65.8406 87.0129C66.8187 87.3538 78.8808 91.4359 90.3329 90.0277C102.285 88.5552 118.936 77.6362 118.936 77.6362C118.936 77.6362 104.18 63.7982 82.3273 66.5177C74.5833 67.4864 65.5635 72.4346 63.1398 73.2533C85.4775 57.565 79.8293 25.0308 79.8293 25.0308C79.8293 25.0308 66.2131 28.7652 59.5048 38.7468C52.7965 48.7283 55.0643 70.7938 55.0643 70.7938C55.0643 70.7938 52.0902 55.3412 43.8187 48.2758C35.5556 41.2157 24.4305 35.75 24.4305 35.75C24.4305 35.75 23.4834 54.6587 31.3487 66.7079C36.2099 74.1514 41.7431 77.261 45.2677 78.5472C40.5568 77.4976 32.1127 76.1169 25.5492 77.7066C15.9217 80.0446 2.51419 88.5343 2.51419 88.5343C2.51419 88.5343 23.903 98.9383 33.8085 97.6827C43.7087 96.4357 50.177 89.9848 50.177 89.9848C50.177 89.9848 37.233 102.729 35.0168 114.448C32.8007 126.168 35.8198 133.332 35.8198 133.332C35.8198 133.332 52.8327 122.852 57.134 115.528L57.1086 115.512Z" fill="#ACC3E2"/>
<path d="M66.2708 78.6352C70.877 92.9505 52.2428 96.7291 47.0149 86.1774C40.5612 73.136 61.6645 64.3199 66.2708 78.6352Z" fill="#FAFDFF"/>
<path d="M59.7845 76.5211C64.9974 79.7842 60.1847 87.7552 54.2021 86.1928C48.3901 84.6783 52.283 71.8253 59.7845 76.5211Z" fill="#212421"/>
</g>
<defs>
<clipPath id="clip0_1_322">
<rect width="110.84" height="189.13" fill="white" transform="translate(40.0176 0.108887) rotate(32.0454)"/>
</clipPath>
</defs>
</svg>
