<svg width="65" height="99" viewBox="0 0 65 99" fill="none" xmlns="http://www.w3.org/2000/svg">
<g clip-path="url(#clip0_1_386)">
<path d="M3.13517 73.9305C-9.79139 75.8403 20.672 99.7826 33.1294 98.3295C33.1294 98.3295 33.789 87.7907 26.9075 82.0543C20.7468 76.9198 11.5602 72.6849 3.13517 73.9305Z" fill="#00764F"/>
<path d="M36.2163 42.854C36.2163 42.854 27.3424 75.2383 37.7734 104.696" stroke="#212421" stroke-width="2.63" stroke-miterlimit="10"/>
<path d="M36.4263 89.8802C36.6507 90.6137 42.7298 91.1742 52.644 83.2857C62.5514 75.3972 68.6849 48.1127 62.5378 48.9015C56.3907 49.6904 30.83 71.4737 36.4263 89.8802Z" fill="#00764F"/>
<path d="M42.1521 0.359836C25.9208 -3.48753 18.2029 24.7173 33.2987 33.5469C48.3944 42.3695 63.4017 5.39048 42.1521 0.359836Z" fill="#FBCF08"/>
<path d="M36.9838 44.0926C36.9838 44.0926 69.2968 36.8615 62.8845 19.0294C56.3974 0.989631 38.9693 21.5274 37.9561 27.0217C37.9561 27.0217 32.9786 2.28362 19.6305 9.6047C6.28232 16.9258 18.8009 42.1343 36.9838 44.0926Z" fill="#EF5326"/>
<path d="M46.3267 8.76042C43.7632 8.85729 41.254 13.5835 43.872 14.1855C46.4899 14.7875 48.8903 8.66354 46.3267 8.76042Z" fill="#212421"/>
<path d="M40.7371 6.04105C37.7112 6.65691 37.1468 13.1684 39.7919 13.6043C42.4371 14.0403 43.7563 5.4252 40.7371 6.04105Z" fill="#212421"/>
<path d="M33.5644 7.00989C31.0688 7.71571 32.4968 13.2653 35.1487 13.1892C38.2835 13.0993 36.0531 6.30408 33.5644 7.00989Z" fill="#212421"/>
<path d="M32.8164 80.4973C32.8164 80.4973 15.7487 65.1078 14.4839 43.4836" stroke="#212421" stroke-width="2.63" stroke-miterlimit="10"/>
<path d="M19.0878 47.075C19.0878 47.075 19.1286 53.3442 16.6603 54.4375C16.6603 54.4375 10.6492 52.8944 9.37083 49.5315" stroke="#212421" stroke-width="1.97" stroke-miterlimit="10"/>
<path d="M23.752 53.2544C23.752 53.2544 23.2828 61.0183 19.74 63.4818C19.74 63.4818 9.96181 60.9284 8.62903 56.306" stroke="#212421" stroke-width="1.97" stroke-miterlimit="10"/>
<path d="M28.8846 52.1335C29.143 48.1547 20.9696 46.5977 21.5816 53.6835C21.9556 58.0222 28.6262 56.1124 28.8846 52.1335Z" fill="#EF5326"/>
<path d="M17.4355 39.8301C15.3004 36.3909 7.5893 39.3872 12.288 44.9507C15.1644 48.3552 19.5707 43.2692 17.4355 39.8301Z" fill="#EF5326"/>
<path d="M23.6574 45.5665C23.5146 42.2174 16.5379 41.56 17.6871 47.4418C18.3875 51.04 23.8002 48.9157 23.6574 45.5665Z" fill="#EF5326"/>
<path d="M9.26921 44.9782C6.08007 43.5043 2.14975 48.9847 8.18124 50.8254C11.8736 51.9533 12.4584 46.4521 9.26921 44.9782Z" fill="#EF5326"/>
<path d="M9.51336 53.5519C6.32421 52.078 2.39389 57.5585 8.42538 59.3991C12.1177 60.527 12.7025 55.0258 9.51336 53.5519Z" fill="#EF5326"/>
<path d="M15.5047 38.4807C14.1516 37.0898 11.5132 38.6329 12.4244 39.7747C13.3356 40.9165 16.8579 39.8647 15.5047 38.4807Z" fill="#FBCF08"/>
<path d="M23.3773 44.1413C22.9693 42.6674 20.4601 42.8196 20.6505 43.9683C20.8409 45.1169 23.7853 45.6152 23.3773 44.1413Z" fill="#FBCF08"/>
<path d="M28.1116 49.6974C27.7037 48.2235 25.1945 48.3758 25.3849 49.5244C25.5753 50.6731 28.5196 51.1713 28.1116 49.6974Z" fill="#FBCF08"/>
<path d="M7.24949 44.7982C5.68552 44.3969 4.57714 46.5213 5.72632 46.9364C6.8755 47.3516 8.80667 45.1996 7.24949 44.7982Z" fill="#FBCF08"/>
<path d="M7.24168 53.538C5.67771 53.1366 4.56933 55.261 5.71851 55.6762C6.86769 56.0914 8.79885 53.9393 7.24168 53.538Z" fill="#FBCF08"/>
</g>
<defs>
<clipPath id="clip0_1_386">
<rect width="65" height="105" fill="white" transform="matrix(-1 0 0 1 65 0)"/>
</clipPath>
</defs>
</svg>
