<svg width="100" height="141" viewBox="0 0 100 141" fill="none" xmlns="http://www.w3.org/2000/svg">
<g clip-path="url(#clip0_1_411)">
<path d="M39.9149 37.1895C39.9149 37.1895 61.1394 122.627 29.8532 156.954" stroke="#212421" stroke-width="3.29" stroke-miterlimit="10"/>
<path d="M55.89 26.3873C55.89 26.3873 69.5112 14.7959 58.0067 3.46131C46.4927 -7.87331 40.7405 11.3062 39.3926 22.2414C39.3926 22.2414 40.3893 -0.465869 23.0755 2.14908C5.76183 4.76403 18.5668 25.7407 24.8506 30.1338C24.8506 30.1338 8.21081 23.2969 3.64507 36.6094C-0.930153 49.9218 9.6726 56.5876 26.5212 48.6286C26.5212 48.6286 12.0077 66.61 26.5877 74.8162C41.1676 83.0223 42.7338 57.2912 42.7338 57.2912C42.7338 57.2912 47.2046 74.2741 62.5914 69.7099C77.9783 65.1456 64.1766 48.0486 57.9593 45.9661C57.9593 45.9661 68.5241 51.4718 76.0988 42.6095C83.6736 33.7567 81.1391 16.7833 55.8805 26.3778L55.89 26.3873Z" fill="#B1BBDF"/>
<path d="M46.2081 31.3891C46.2081 31.3891 59.2789 10.9734 54.0677 9.08116C48.8565 7.18889 43.1517 31.5983 43.1517 31.5983L46.2081 31.3891Z" fill="#5782C2"/>
<path d="M36.7344 31.5033C36.7344 31.5033 31.5517 5.92431 25.3533 8.89108C19.1454 11.8484 33.8962 32.8345 33.8962 32.8345L36.7344 31.5033Z" fill="#5782C2"/>
<path d="M30.4883 36.2196C30.4883 36.2196 9.70044 31.9406 9.11192 37.8837C8.52341 43.8172 29.5011 39.1293 29.5011 39.1293L30.4883 36.2196Z" fill="#5782C2"/>
<path d="M49.6247 34.023C49.6247 34.023 73.9626 25.484 73.6493 33.0056C73.4405 37.9026 50.5454 37.722 50.5454 37.722L49.6342 34.023H49.6247Z" fill="#5782C2"/>
<path d="M49.1408 42.4668C49.1408 42.4668 69.6534 59.2215 60.8067 61.5322C51.96 63.8428 45.4104 44.1689 45.4104 44.1689L49.1503 42.4668H49.1408Z" fill="#5782C2"/>
<path d="M39.4297 45.3289C39.4297 45.3289 36.2213 71.5735 29.7097 67.9981C23.1981 64.4228 35.2531 44.7869 35.2531 44.7869L39.4297 45.3289Z" fill="#5782C2"/>
<path d="M34.5423 29.2115C14.1911 36.1054 34.324 52.9362 47.1099 46.9361C58.5575 41.5636 54.903 22.3175 34.5423 29.2115Z" fill="#212421"/>
<path d="M43.7107 140.038C43.7107 140.038 76.4491 159.74 96.582 105.007C96.582 105.007 90.1179 110.218 79.0785 110.379C68.0296 110.532 45.761 117.473 43.7107 140.038Z" stroke="#017755" stroke-width="3.29" stroke-miterlimit="10"/>
<path d="M96.287 107.204C91.484 113.156 84.2605 116.085 77.3691 118.871C73.4868 120.44 69.671 122.094 65.988 124.091C61.9634 126.278 58.0906 128.732 54.2557 131.233C50.7721 133.505 45.9975 135.882 44.7635 140.209C44.3554 141.654 42.0962 141.046 42.5044 139.581C43.558 135.873 46.624 133.477 49.69 131.423C53.5723 128.827 57.4925 126.278 61.5172 123.92C65.5419 121.562 69.3672 119.66 73.4963 117.93C77.1318 116.408 80.8433 115.039 84.3744 113.289C88.2662 111.359 91.8637 108.953 94.6164 105.549C95.5656 104.379 97.2078 106.043 96.2681 107.204H96.287Z" fill="#017755"/>
<path d="M95.1012 111.235C92.5098 114.658 89.9944 118.148 87.3081 121.505C84.8022 124.633 81.7457 126.982 78.395 129.131C71.8549 133.324 64.7547 136.795 57.2559 138.887C52.9749 140.085 48.5706 140.798 44.1282 140.97C42.619 141.027 42.6285 138.687 44.1282 138.63C51.6555 138.336 59.0309 136.348 65.8938 133.277C69.254 131.774 72.5003 130.034 75.6327 128.104C78.7652 126.174 82.0779 124.015 84.6028 121.124C87.6498 117.635 90.2981 113.746 93.0888 110.056C93.9811 108.868 96.0219 110.037 95.1107 111.235H95.1012Z" fill="#017755"/>
<path d="M37.1044 141.074C37.1044 141.074 43.5021 126.573 32.3678 111.473C21.2335 96.3824 10.2321 91.9512 9.71949 81.6436C9.71949 81.6436 -21.1016 122.484 37.1044 141.065V141.074Z" stroke="#017755" stroke-width="3.29" stroke-miterlimit="10"/>
<path d="M35.3285 140.817C35.8221 132.136 32.5758 123.863 27.9246 116.684C25.5896 113.089 22.9033 109.742 20.1031 106.5C17.3029 103.257 14.2179 100.461 12.1297 96.8766C9.87052 92.9874 8.99724 88.4897 8.82638 84.0396C8.76942 82.5276 11.114 82.5371 11.1615 84.0396C11.3133 88.0808 12.0917 92.1697 14.142 95.6975C16.1923 99.2253 19.581 102.306 22.3053 105.492C27.7633 111.872 32.7656 118.785 35.5658 126.782C37.132 131.28 37.9389 136.053 37.6636 140.817C37.5782 142.32 35.2431 142.329 35.3285 140.817Z" fill="#017755"/>
<path d="M9.48358 84.2776C7.73702 88.956 6.74984 93.8721 6.66441 98.8738C6.58847 103.457 7.05359 108.392 9.06593 112.586C12.9197 120.602 22.3739 122.028 28.5249 127.61C32.2363 130.976 34.7043 135.455 37.0773 139.81C37.7987 141.131 35.7769 142.32 35.0555 140.989C32.8343 136.919 30.5657 132.735 27.1485 129.521C24.0161 126.583 20.0104 124.9 16.3179 122.817C12.6255 120.735 9.19882 118.034 7.20546 114.107C5.10769 109.971 4.42426 105.197 4.31984 100.614C4.19645 94.842 5.19312 89.0606 7.21495 83.65C7.73702 82.2522 9.99616 82.8608 9.47409 84.2776H9.48358Z" fill="#017755"/>
<path d="M49.254 105.815C49.254 105.815 73.4306 106.471 78.5469 78.6958C78.5469 78.6958 70.8392 81.9574 69.1306 82.2046C67.4221 82.4423 50.5545 84.6294 49.2445 105.825L49.254 105.815Z" stroke="#017755" stroke-width="3.29" stroke-miterlimit="10"/>
<path d="M78.9645 81.0732C74.9588 85.9512 68.675 87.6058 63.3214 90.487C60.5402 91.9799 58.1197 93.8531 56.4301 96.5727C54.5222 99.644 53.3167 103.086 50.8772 105.825C49.871 106.956 48.2194 105.292 49.2255 104.17C51.6745 101.413 52.7756 97.7898 54.8164 94.766C56.544 92.2081 58.9075 90.2873 61.5748 88.7849C66.862 85.8086 73.3072 84.2967 77.3129 79.4281C78.2716 78.2585 79.9137 79.9321 78.9645 81.0827V81.0732Z" fill="#017755"/>
</g>
<defs>
<clipPath id="clip0_1_411">
<rect width="100" height="158" fill="white" transform="matrix(-1 0 0 1 100 0)"/>
</clipPath>
</defs>
</svg>
