<svg width="129" height="164" viewBox="0 0 129 164" fill="none" xmlns="http://www.w3.org/2000/svg">
<g clip-path="url(#clip0_1_432)">
<path d="M99.2711 108.3C99.2711 108.3 101.671 151.79 88.1211 164.91" stroke="#212421" stroke-width="2.63" stroke-miterlimit="10"/>
<path d="M40.9199 100.65C40.9199 100.65 55.1299 148.73 83.3199 151.14" stroke="#212421" stroke-width="2.63" stroke-miterlimit="10"/>
<path d="M84.3293 41.1997C84.3293 41.1997 58.9793 127.75 93.0693 169.13" stroke="#212421" stroke-width="3.29" stroke-miterlimit="10"/>
<path d="M75.1099 42.9298C75.1099 42.9298 34.1199 30.2898 46.7599 16.4998C59.3999 2.70977 79.3199 29.1398 82.7699 36.7998C82.7699 36.7998 78.9399 -1.13023 92.3499 0.019772C105.76 1.16977 92.3499 32.9698 89.6699 34.8798C89.6699 34.8798 113.42 9.97977 124.53 22.9998C135.64 36.0298 101.93 47.5198 91.5799 44.0698C91.5799 44.0698 125.29 55.5598 111.88 67.8198C98.4699 80.0798 82.7599 47.5198 82.7599 47.5198C82.7599 47.5198 63.9899 75.4898 49.8099 61.3098C35.6399 47.1398 75.0899 42.9198 75.0899 42.9198L75.1099 42.9298Z" fill="#FBCF08"/>
<path d="M94.0093 28.7598C97.6493 28.7598 98.6093 33.1698 94.7793 33.9298C90.9493 34.6998 90.3693 28.7598 94.0093 28.7598Z" fill="#EF5326"/>
<path d="M83.5394 25.25C87.4994 24.74 90.0494 28.57 85.7094 30.1C81.3694 31.63 79.5794 25.76 83.5394 25.25Z" fill="#EF5326"/>
<path d="M76.5086 28.1201C80.3386 28.5001 81.3586 33.6101 76.8886 34.3801C72.4186 35.1501 72.6786 27.7401 76.5086 28.1201Z" fill="#EF5326"/>
<path d="M76.4492 31.2502C76.4492 31.2502 81.9392 35.4602 82.5792 43.8902L83.3492 43.6302C83.3492 43.6302 82.6492 34.2402 76.4492 31.2402V31.2502Z" fill="#EF5326"/>
<path d="M84.3686 27.29C84.3686 27.29 82.3886 37.76 83.3486 43.64H84.1186C84.1186 43.64 83.7386 32.27 85.2086 27.04L84.3786 27.3L84.3686 27.29Z" fill="#EF5326"/>
<path d="M83.3381 43.6302C83.3381 43.6302 87.8081 33.4802 92.8481 31.9502L93.3581 32.4602C93.3581 32.4602 87.8081 34.6902 84.0981 43.6302H83.3281H83.3381Z" fill="#EF5326"/>
<path d="M31.2403 102.96C31.2403 102.96 4.37028 86.1898 17.3003 79.3198C30.2303 72.4498 37.3003 94.0698 37.9003 97.4998C37.9003 97.4998 34.0603 70.8298 45.1703 70.8298C56.2803 70.8298 51.8403 93.6598 45.5703 98.5098C45.5703 98.5098 71.2303 84.9798 71.6303 101.34C72.0303 117.7 43.9503 108.21 42.7403 105.78C42.7403 105.78 54.0503 129.82 40.3203 131.84C26.5803 133.86 33.8603 109.01 33.8603 109.01C33.8603 109.01 3.96029 123.15 0.330285 112.65C-3.30972 102.15 24.3703 100.13 31.2403 102.95V102.96Z" fill="#FBCF08"/>
<path d="M42.7498 91.9696C45.4598 90.9896 47.3598 94.0096 44.7098 95.6096C42.0698 97.2096 40.0398 92.9496 42.7498 91.9696Z" fill="#EF5326"/>
<path d="M34.0183 92.1796C36.8283 90.7296 39.7583 92.8896 36.9383 95.1996C34.1183 97.5096 31.2083 93.6196 34.0183 92.1796Z" fill="#EF5326"/>
<path d="M29.5697 96.2095C32.5197 95.4595 34.6597 98.9795 31.5397 100.76C28.4197 102.53 26.6197 96.9595 29.5697 96.2095Z" fill="#EF5326"/>
<path d="M30.3711 98.5593C30.3711 98.5593 35.5911 100.209 38.3411 106.309L38.8411 105.909C38.8411 105.909 35.7911 99.1193 30.3711 98.5593Z" fill="#EF5326"/>
<path d="M35.1895 93.4796C35.1895 93.4796 36.5395 101.8 38.8395 105.91L39.4095 105.7C39.4095 105.7 36.0595 97.3496 35.7395 93.0596L35.1895 93.4696V93.4796Z" fill="#EF5326"/>
<path d="M38.8301 105.909C38.8301 105.909 39.4201 97.1594 42.7501 94.6594L43.2701 94.8994C43.2701 94.8994 39.7401 98.0594 39.4001 105.699L38.8301 105.909Z" fill="#EF5326"/>
<path d="M94.6711 107.7C94.6711 107.7 71.2611 91.1797 82.0811 86.4597C92.9011 81.7397 97.6211 97.4697 99.1911 102.39C99.1911 102.39 94.0811 80.3597 105.681 81.1497C117.291 81.9397 106.271 101.21 105.091 103.18C105.091 103.18 126.731 88.6197 128.301 101.8C129.871 114.98 107.251 109.67 107.251 109.67C107.251 109.67 121.021 122.65 111.181 129.14C101.351 135.63 99.1811 110.45 99.1811 110.45C99.1811 110.45 88.5611 129.33 79.3111 119.89C70.0611 110.45 94.6511 107.69 94.6511 107.69L94.6711 107.7Z" fill="#FBCF08"/>
<path d="M111.831 98.8393C114.091 99.5593 113.811 102.479 111.281 102.199C108.751 101.909 109.581 98.1193 111.831 98.8393Z" fill="#EF5326"/>
<path d="M106.033 94.5794C108.593 95.0494 109.413 97.9294 106.413 98.0194C103.413 98.1094 103.473 94.1094 106.033 94.5794Z" fill="#EF5326"/>
<path d="M101.112 94.9694C103.412 95.9694 103.032 99.3394 100.102 98.9294C97.182 98.5194 98.812 93.9794 101.112 94.9694Z" fill="#EF5326"/>
<path d="M100.441 96.8896C100.441 96.8896 103.011 100.59 101.731 105.95H102.261C102.261 105.95 103.691 99.9796 100.441 96.8896Z" fill="#EF5326"/>
<path d="M106.142 96.0093C106.142 96.0093 102.832 102.109 102.262 105.939L102.742 106.089C102.742 106.089 104.762 98.9693 106.712 96.0093H106.142Z" fill="#EF5326"/>
<path d="M102.262 105.939C102.262 105.939 107.052 100.529 110.482 100.579L110.702 100.999C110.702 100.999 106.812 101.279 102.742 106.089L102.262 105.939Z" fill="#EF5326"/>
<path d="M41.9391 148C43.1091 155.87 64.6691 154.12 64.9591 149.75C65.2491 145.38 40.7691 140.13 41.9391 148Z" fill="#017755"/>
<path d="M113.621 144.51C118.871 149.17 105.171 158.79 99.3413 156.46C93.5113 154.13 108.371 139.85 113.621 144.51Z" fill="#017755"/>
<path d="M61.7513 71.3601C67.5813 67.2801 73.7013 85.3501 70.4913 87.6801C67.2813 90.0101 55.9213 75.4401 61.7513 71.3601Z" fill="#017755"/>
<path d="M90.8898 68.1599C97.2998 69.0299 86.2298 82.7299 81.5698 82.7299C76.9098 82.7299 84.4798 67.2899 90.8898 68.1599Z" fill="#017755"/>
<path d="M89.7399 131.43C94.9099 132.42 92.4499 149.41 86.7799 150.64C81.1199 151.87 84.5599 130.45 89.7399 131.43Z" fill="#017755"/>
</g>
<defs>
<clipPath id="clip0_1_432">
<rect width="128.39" height="170.18" fill="white"/>
</clipPath>
</defs>
</svg>
