<svg width="97" height="138" viewBox="0 0 97 138" fill="none" xmlns="http://www.w3.org/2000/svg">
<g clip-path="url(#clip0_1_473)">
<path d="M44.332 146.959C44.332 146.959 11.5437 147.503 -0.00862885 116.553C-0.00862885 116.553 1.07492 120.891 12.9173 126.019C24.7682 131.148 35.3137 127.474 44.3235 146.959H44.332Z" fill="#007D4C"/>
<path d="M46.593 138.632C46.593 138.632 58.6913 132.806 65.005 111.033C71.1139 89.9749 79.2363 78.4165 79.2363 78.4165C79.2363 78.4165 41.7383 90.5957 46.593 138.632Z" fill="#007D4C"/>
<path d="M49.1441 32.6592C49.1441 32.6592 61.1401 58.5996 51.4819 82.1926C38.7863 113.211 37.8307 134.09 48.308 148.336" stroke="#212421" stroke-width="2.63" stroke-miterlimit="10"/>
<path d="M59.9377 31.2729C59.9377 31.2729 69.2887 7.38217 62.813 2.48326C56.3372 -2.41565 38.7102 0.374005 37.1061 6.98243C35.5021 13.5909 46.4657 31.0687 46.4657 31.0687C46.4657 31.0687 29.6492 13.7525 22.7298 17.4436C15.8103 21.1433 14.9145 40.9431 19.462 44.6938C24.0096 48.4446 42.4813 43.8093 42.4813 43.8093C42.4813 43.8093 15.179 61.4318 22.5079 71.017C29.8369 80.6022 45.5443 80.5681 49.7761 76.5708C54.008 72.5734 54.6564 50.5453 54.6564 50.5453C54.6564 50.5453 62.9324 72.9476 69.63 73.543C76.3276 74.1468 90.2518 64.4511 88.699 58.3104C87.1462 52.1698 66.7292 42.6101 66.7292 42.6101C66.7292 42.6101 92.6066 47.8577 95.6014 40.2542C98.5961 32.6677 96.8726 15.479 89.4839 14.722C82.0867 13.9651 59.9462 31.2729 59.9462 31.2729H59.9377Z" fill="#587EBE"/>
<path d="M56.8832 50.2646C56.8832 50.2646 66.5328 50.4517 65.6967 39.3526C64.852 28.2535 51.0985 27.352 45.1602 35.806C39.222 44.26 50.834 51.3532 56.8917 50.2646H56.8832Z" fill="#212421"/>
<path d="M54.7342 31.4428C53.9066 31.9786 54.4868 36.1801 55.485 36.044C56.4833 35.908 55.5618 30.9155 54.7342 31.4428Z" fill="#B1BBDF"/>
<path d="M52.9844 36.2309C52.9844 36.2309 51.824 32.931 51.1585 33.7559C50.493 34.5724 52.9588 37.0049 52.9844 36.2309Z" fill="#B1BBDF"/>
<path d="M49.4789 38.74C49.4789 38.74 45.9296 36.8009 46.3477 38.4423C46.7572 40.0753 49.8629 38.9697 49.4789 38.74Z" fill="#B1BBDF"/>
<path d="M62.4806 35.3636C62.327 36.9285 58.7948 38.9017 58.6838 37.6174C58.5815 36.3416 62.6256 33.7986 62.4806 35.3636Z" fill="#B1BBDF"/>
<path d="M47.4995 43.265C48.9073 44.0645 51.1768 41.7681 50.8441 41.0622C50.5028 40.3563 46.1003 42.4655 47.4995 43.265Z" fill="#B1BBDF"/>
<path d="M56.9781 43.3841C56.3638 44.4047 57.4729 47.5005 58.4968 47.2454C59.5206 46.9902 57.5924 42.3635 56.9781 43.3841Z" fill="#B1BBDF"/>
<path d="M53.0788 43.9284C51.3383 44.3622 50.9714 46.3268 51.6625 47.1263C52.3451 47.9258 54.8279 43.4946 53.0788 43.9284Z" fill="#B1BBDF"/>
<path d="M60.0236 41.2067C59.6908 42.0487 61.9006 44.328 62.9245 43.6306C63.9483 42.9417 60.3563 40.3562 60.0236 41.2067Z" fill="#B1BBDF"/>
<path d="M60.4923 14.654C59.7244 14.8496 55.6035 28.0409 57.6085 28.8404C59.6135 29.6399 62.7618 14.0841 60.4923 14.654Z" fill="#B1BBDF"/>
<path d="M45.4838 18.7449C44.8354 20.3778 48.2567 30.3713 49.6645 30.0991C51.0723 29.8269 46.1408 17.1119 45.4838 18.7449Z" fill="#B1BBDF"/>
<path d="M53.2496 21.6113C51.4835 22.0536 52.2855 29.4445 53.7018 29.5721C55.1266 29.6997 55.0157 21.1691 53.2496 21.6113Z" fill="#B1BBDF"/>
<path d="M34.188 23.95C32.8826 25.9061 43.5391 34.4112 44.8871 33.5862C46.2352 32.7612 35.4934 21.9938 34.188 23.95Z" fill="#B1BBDF"/>
<path d="M33.4373 31.6471C33.753 33.8499 41.0308 36.1037 42.4727 35.3382C43.9146 34.5643 33.1302 29.4442 33.4373 31.6471Z" fill="#B1BBDF"/>
<path d="M30.4863 39.0719C31.3139 40.7389 41.6717 39.2846 41.7997 38.1874C41.9362 37.0903 29.6501 37.405 30.4863 39.0719Z" fill="#B1BBDF"/>
<path d="M66.4735 45.4592C65.8592 46.9221 73.666 53.8537 74.9372 52.7141C76.2085 51.5829 67.0878 43.9964 66.4735 45.4592Z" fill="#B1BBDF"/>
<path d="M61.251 51.9912C59.7323 53.1053 62.6331 62.3333 64.2883 61.4233C65.9435 60.5132 62.7696 50.8685 61.251 51.9912Z" fill="#B1BBDF"/>
<path d="M64.8438 50.035C63.7517 51.5319 69.0927 58.4295 70.3213 57.1452C71.5499 55.8609 65.9359 48.5381 64.8438 50.035Z" fill="#B1BBDF"/>
<path d="M51.2955 51.4724C50.0498 52.6801 49.3673 60.3601 50.9457 60.1305C52.5241 59.9009 52.5497 50.2646 51.2955 51.4724Z" fill="#B1BBDF"/>
<path d="M47.4042 49.6778C45.6552 50.1966 40.5531 61.755 42.7287 61.6189C44.9044 61.4828 49.1533 49.1505 47.4042 49.6778Z" fill="#B1BBDF"/>
<path d="M44.3423 46.9393C42.0728 46.6927 34.8803 53.8794 36.6208 54.917C38.3528 55.9462 46.6203 47.186 44.3423 46.9393Z" fill="#B1BBDF"/>
<path d="M76.2852 40.552C75.1163 42.0659 66.2004 40.4755 66.3881 39.2848C66.5758 38.0941 77.4541 39.0381 76.2852 40.552Z" fill="#B1BBDF"/>
<path d="M75.7563 27.4626C73.2906 26.7737 63.9651 32.9484 65.2535 34.1816C66.5418 35.4064 77.9746 28.0835 75.7563 27.4626Z" fill="#B1BBDF"/>
<path d="M76.6009 34.3517C76.7972 36.0952 65.7312 37.6516 66.1493 36.4014C66.5673 35.1511 76.4047 32.5996 76.6009 34.3517Z" fill="#B1BBDF"/>
<path d="M35.4324 85.629C28.5386 85.0252 26.3373 108.746 31.0043 109.936C41.0721 112.505 42.3262 86.2329 35.4324 85.629Z" fill="#B1BBDF"/>
<path d="M8.59151 93.2495C1.40759 96.0136 12.9855 113.262 18.2497 112.097C23.2409 111 17.1149 89.958 8.59151 93.2495Z" fill="#B1BBDF"/>
<path d="M23.5734 78.8676C16.1421 78.9441 18.1044 101.78 22.7373 102.452C27.3702 103.124 33.9398 78.757 23.5734 78.8676Z" fill="#B1BBDF"/>
<path d="M41.1914 131.403C41.1914 131.403 19.0595 121.776 23.735 89.7285" stroke="#212421" stroke-width="2.63" stroke-miterlimit="10"/>
<path d="M32.7104 93.7854C32.7104 93.7854 34.3827 112.207 27.3694 116.724C27.3694 116.724 18.317 115.023 14.2984 104.842" stroke="#212421" stroke-width="2.63" stroke-miterlimit="10"/>
</g>
<defs>
<clipPath id="clip0_1_473">
<rect width="97" height="149" fill="white" transform="matrix(-1 0 0 1 97 0)"/>
</clipPath>
</defs>
</svg>
