<svg width="43" height="90" viewBox="0 0 43 90" fill="none" xmlns="http://www.w3.org/2000/svg">
<g clip-path="url(#clip0_1_512)">
<path d="M21.454 59.2382C21.454 59.2382 28.1773 41.5086 31.7529 45.0992C35.3286 48.6897 30.897 55.207 21.1289 61.4469L21.454 59.2437V59.2382Z" fill="#007553"/>
<path d="M21.0137 60.3698C21.0137 60.3698 28.2733 54.7392 29.774 48.4014" stroke="#212421" stroke-width="1.31" stroke-miterlimit="10"/>
<path d="M22.7463 78.6811C22.1016 78.6811 27.9147 58.5687 37.6069 57.274C47.2991 55.9738 27.4867 81.2761 22.1016 84.3063L22.7463 78.6811Z" fill="#007553"/>
<path d="M21.7985 70.7819C21.7985 70.7819 14.4739 68.187 9.3054 60.6197C4.13695 53.0524 -1.46491 42.2373 5.42636 42.4549C12.3176 42.6725 18.9922 67.322 21.5764 67.7572L21.7931 70.7874L21.7985 70.7819Z" fill="#007553"/>
<path d="M7.51172 49.0376C7.51172 49.0376 13.2761 65.7607 21.9552 69.2479" stroke="#212421" stroke-width="1.31" stroke-miterlimit="10"/>
<path d="M21.7768 35.2852C21.7768 35.2852 18.9759 46.9489 21.1267 61.4416C23.2775 75.9342 22.2807 86.9343 21.4301 92.8967" stroke="#212421" stroke-width="2.63" stroke-miterlimit="10"/>
<path d="M10.6281 41.2418C21.653 45.4308 35.5168 42.0851 40.0189 36.1662C46.9698 27.0266 39.7751 12.6591 38.3719 14.0627C36.9688 15.4717 36.129 21.3797 35.571 19.9707C35.013 18.5617 33.6152 13.7852 32.4938 14.2096C31.3723 14.6339 30.1046 19.9707 29.4057 18.986C28.7068 18.0014 28.2842 12.9366 27.1628 13.214C26.0413 13.4969 23.6576 20.1122 23.0995 18.986C22.5415 17.8599 21.9781 12.0879 20.9975 12.5122C20.0169 12.9366 18.5866 18.7521 17.7469 17.626C16.9071 16.4999 16.4087 11.4133 14.4096 12.6537C13.3965 13.2793 13.7107 18.2843 12.4484 16.8753C11.1861 15.4662 12.0746 11.7234 10.0646 11.8104C7.64294 11.9138 7.4479 18.3767 6.60817 17.1092C5.76843 15.8416 4.23523 9.23723 1.96523 12.3436C0.849191 13.8723 -4.92604 35.3229 10.6281 41.2364V41.2418Z" fill="#EF5224"/>
<path d="M15.1252 4.24885C17.5685 4.39029 19.1451 10.739 16.5608 11.604C13.9766 12.469 12.6818 4.1074 15.1252 4.24885Z" fill="#FFCF09"/>
<path d="M23.4512 0.0650733C26.8969 1.07695 25.7483 9.43852 22.7307 9.57996C19.713 9.72141 20.0056 -0.941361 23.4512 0.0650733Z" fill="#FFCF09"/>
<path d="M29.4807 5.54345C31.6369 6.40844 31.6369 12.8986 28.6193 12.175C25.6017 11.4515 27.3245 4.67846 29.4807 5.54345Z" fill="#FFCF09"/>
<path d="M22.0391 80.5855C22.0391 80.5855 31.6717 69.2481 36.4067 60.0542" stroke="#212421" stroke-width="1.31" stroke-miterlimit="10"/>
</g>
<defs>
<clipPath id="clip0_1_512">
<rect width="43" height="93" fill="white"/>
</clipPath>
</defs>
</svg>
