<svg width="83" height="103" viewBox="0 0 83 103" fill="none" xmlns="http://www.w3.org/2000/svg">
<g clip-path="url(#clip0_1_344)">
<path d="M29.647 94.3263C29.647 94.3263 36.7237 80.7316 43.3404 87.9292C49.771 94.9285 28.9372 99.9453 28.9372 99.9453L29.647 94.3263Z" fill="#00764F"/>
<path d="M29.5732 97.7155C29.5732 97.7155 36.3757 88.467 41.0326 89.7691" stroke="#212421" stroke-width="1.31" stroke-miterlimit="10"/>
<path d="M30.0048 78.8782C30.0048 78.8782 23.9701 64.7867 16.8329 71.4619C9.89316 77.9584 30.2925 84.5319 30.2925 84.5319L30.0048 78.8782Z" fill="#00764F"/>
<path d="M29.8194 82.2627C29.8194 82.2627 23.732 72.5268 18.9924 73.478" stroke="#212421" stroke-width="1.31" stroke-miterlimit="10"/>
<path d="M26.8302 104.841C26.8302 104.841 7.49021 98.687 14.0919 91.2783C20.4741 84.1128 27.7898 99.9907 27.7898 99.9907L26.8302 104.841Z" fill="#00764F"/>
<path d="M17.4785 94.7708C17.4785 94.7708 25.3267 97.8898 27.1587 103.801" stroke="#212421" stroke-width="1.31" stroke-miterlimit="10"/>
<path d="M20.1895 17.5708C20.1895 17.5708 37.1204 65.0204 27.0736 107.656" stroke="#212421" stroke-width="1.97" stroke-miterlimit="10"/>
<path d="M29.5705 90.6312C29.5705 90.6312 45.5952 46.5716 61.3596 29.2895" stroke="#212421" stroke-width="1.97" stroke-miterlimit="10"/>
<path d="M36.8628 72.6102C36.8628 72.6102 56.8226 67.3793 69.078 50.849" stroke="#212421" stroke-width="1.97" stroke-miterlimit="10"/>
<path d="M-0.876953 35.3198C-0.876953 35.3198 13.6455 66.3072 30.1143 69.8852" stroke="#212421" stroke-width="1.97" stroke-miterlimit="10"/>
<path d="M37.7529 26.1417C37.8818 26.7269 33.0368 57.1799 29.5394 61.3597" stroke="#212421" stroke-width="1.97" stroke-miterlimit="10"/>
<path d="M18.1608 15.1322C18.1608 15.1322 18.0966 19.4569 20.6584 19.4992C23.2201 19.5415 22.977 16.7409 22.1607 14.434L18.1681 15.133L18.1608 15.1322Z" fill="#00764F"/>
<path d="M16.9435 3.04256C26.7897 0.564571 26.6069 14.808 20.271 15.9781C13.935 17.1481 9.43143 4.92979 16.9435 3.04256Z" fill="#FFCF06"/>
<path d="M17.963 4.57801C20.8133 3.94718 21.5658 5.27543 19.9055 6.55538C18.2453 7.83534 15.1061 5.20071 17.963 4.57801Z" fill="#1F1F26"/>
<path d="M59.8617 27.7245C59.8617 27.7245 56.5008 30.4506 58.1079 32.4433C59.715 34.436 61.7119 32.451 62.9585 30.3397L59.8617 27.7245Z" fill="#00764F"/>
<path d="M68.3544 19.0389C76.5663 25.0088 65.5193 34.0015 60.5607 29.8925C55.6021 25.7835 62.0864 14.4902 68.3544 19.0389Z" fill="#FFCF06"/>
<path d="M67.8276 20.806C70.1394 22.5938 69.5982 24.0182 67.556 23.5653C65.5065 23.1116 65.5157 19.0183 67.8276 20.806Z" fill="#1F1F26"/>
<path d="M-3.02531 34.7075C-3.02531 34.7075 -2.73283 39.0266 -0.177195 38.8531C2.37844 38.6797 1.90167 35.9129 0.892571 33.674L-3.03264 34.7067L-3.02531 34.7075Z" fill="#00764F"/>
<path d="M-5.24303 22.7608C4.36547 19.4706 5.36581 33.68 -0.849463 35.375C-7.06473 37.0701 -12.5706 25.2689 -5.24303 22.7608Z" fill="#FFCF06"/>
<path d="M67.7843 49.8988C67.7843 49.8988 64.9773 53.1897 66.9242 54.856C68.871 56.5223 70.4666 54.2043 71.3114 51.9008L67.7843 49.8988Z" fill="#00764F"/>
<path d="M74.5448 39.8077C83.7112 44.1684 74.4991 55.0378 68.8706 51.9015C63.2421 48.7652 67.5577 36.4786 74.5448 39.8077Z" fill="#FFCF06"/>
<path d="M74.3523 41.6337C76.9508 42.9706 76.6833 44.4694 74.5848 44.396C72.4929 44.3308 71.7466 40.296 74.3523 41.6337Z" fill="#1F1F26"/>
<path d="M36.8764 22.5156C36.8764 22.5156 35.3775 27.685 37.6703 28.0169C39.9704 28.3495 40.6618 24.123 40.6618 24.123L36.8764 22.5156Z" fill="#00764F"/>
<path d="M41.281 13.9695C48.1489 14.5857 45.5099 24.7634 39.8629 25.1928C34.2087 25.6213 34.4131 13.3533 41.281 13.9695Z" fill="#FFCF06"/>
<path d="M41.3923 15.4722C42.8617 14.8538 43.7517 16.5531 42.8174 17.6379C41.8912 18.7161 39.923 16.0906 41.3923 15.4722Z" fill="#1F1F26"/>
<path d="M10.3789 29.6138C10.3789 29.6138 15.2461 44.2082 27.1231 46.8399" stroke="#212421" stroke-width="1.97" stroke-miterlimit="10"/>
<path d="M7.66433 27.1737C7.66433 27.1737 9.17667 32.8202 11.5019 31.8353C13.8272 30.8505 12.0878 26.5366 12.0878 26.5366L7.66433 27.1737Z" fill="#00764F"/>
<path d="M6.9469 16.7558C13.6778 13.463 16.9559 24.4053 11.9436 27.9895C6.93139 31.5738 0.21521 20.0559 6.9469 16.7558Z" fill="#FFCF06"/>
<path d="M7.90531 18.0917C8.92615 16.69 10.7066 17.7745 10.4514 19.2968C10.1954 20.8265 6.88527 19.4861 7.90531 18.0917Z" fill="#1F1F26"/>
</g>
<defs>
<clipPath id="clip0_1_344">
<rect width="88.6142" height="103.545" fill="white" transform="translate(-5.76172) rotate(6.23015)"/>
</clipPath>
</defs>
</svg>
