<svg width="121" height="120" viewBox="0 0 121 120" fill="none" xmlns="http://www.w3.org/2000/svg">
<circle cx="60.5" cy="60" r="60" fill="#147AA9" fill-opacity="0.15"/>
<path d="M92.4884 63.0395C92.4265 61.8396 92.1186 60.6652 91.5836 59.5894C91.0487 58.5136 90.2982 57.5593 89.3788 56.7858C88.4595 56.0122 87.3908 55.4361 86.2394 55.093C85.0879 54.75 83.8782 54.6474 82.6854 54.7917C82.7797 53.7749 82.799 52.7463 82.7456 51.7146C82.4797 46.5996 80.412 41.8767 76.8863 38.2463C77.9172 36.4646 78.1653 34.405 77.5496 32.3804C76.6442 29.5054 74.0135 27.4978 71.1541 27.4978C71.013 27.4978 70.8689 27.503 70.7285 27.512L70.5517 27.529C70.2691 27.5646 69.9885 27.6147 69.711 27.6791C69.4788 27.2692 69.2182 26.8761 68.9312 26.5026C67.2103 24.3101 64.5908 23 61.9259 23C60.7695 23 59.654 23.2406 58.609 23.7167L58.4485 23.7947C56.0006 25.087 54.4832 27.0292 54.0606 29.4118C53.8356 30.6766 53.9901 31.9964 54.4728 33.1937C51.3308 34.3729 48.5198 36.2929 46.2785 38.7907C42.9593 42.4753 41.0885 47.1106 40.9102 52.0065C39.7971 51.5952 38.6121 51.4138 37.4269 51.4733C36.2764 51.53 35.1486 51.8145 34.1088 52.3102C33.069 52.8058 32.1379 53.5029 31.3694 54.3609C30.596 55.2146 29.9997 56.2131 29.615 57.2988C29.2302 58.3845 29.0647 59.5357 29.1279 60.6858C29.1997 62.0192 29.5742 63.3187 30.2231 64.4857C30.8719 65.6528 31.778 66.6567 32.8726 67.4215C34.9704 69.8433 37.358 71.998 39.9818 73.837C39.7165 74.9403 39.5404 76.0632 39.4552 77.1948L37.2784 77.5476C35.8709 76.3615 34.1969 75.8534 32.5956 76.1409C28.8523 76.8182 26.7646 81.3918 27.7383 86.7824C28.6258 91.6977 31.656 95.1312 35.1074 95.1312C35.4112 95.1312 35.7157 95.1037 36.012 95.0495C36.7514 94.9137 37.4522 94.6181 38.0656 94.1835L47.8315 92.6023C50.6308 93.9043 54.0859 94.5779 58.1166 94.6076C58.7508 94.7019 59.8686 94.8029 61.1698 94.8029C63.3787 94.8029 66.55 94.5155 69.512 93.2068L76.8299 95.5508C77.3721 96.0713 78.0212 96.4675 78.7319 96.7117C79.265 96.8933 79.8243 96.9856 80.3874 96.985C83.5573 96.985 86.6752 94.0847 88.1436 89.7681C89.909 84.5833 88.5238 79.749 84.9232 78.5227C84.3916 78.3417 83.8337 78.2496 83.2721 78.2502C82.1937 78.2502 81.1064 78.5814 80.08 79.2142L77.3015 78.3244C77.2874 78.1648 77.271 78.0051 77.2547 77.8424C81.0866 76.2342 84.6338 74.0182 87.7596 71.2798C90.7757 69.7127 92.6667 66.4359 92.4884 63.0395ZM85.8634 68.4494C82.3218 71.6176 78.1843 74.0482 73.6927 75.5994C74.0365 77.3366 74.1821 78.8882 74.1621 80.2711L80.4743 82.2935C81.5394 81.2418 82.724 80.7509 83.7452 81.0977C85.6503 81.7468 86.2482 85.063 85.0769 88.5048C83.9057 91.9472 81.4094 94.2103 79.5021 93.5611C79.0342 93.4014 78.6451 93.0806 78.342 92.6372L69.0648 89.6626C64.4756 92.2257 58.4151 91.362 58.1723 91.2951C53.7435 91.2921 50.486 90.4729 48.1137 89.1702L36.5542 91.0441C36.1881 91.4347 35.7573 91.6969 35.2708 91.7846C33.2878 92.1418 31.1562 89.5327 30.51 85.955C29.8639 82.3789 30.9475 79.1875 32.9298 78.828C33.9896 78.6379 35.0903 79.2989 35.9846 80.4991L42.2501 79.4838C42.0547 76.3904 42.7878 73.5622 43.3522 72.2773C40.0875 70.2742 37.1627 67.7638 34.6878 64.8405C33.8904 64.3551 33.2236 63.6823 32.7454 62.8806C32.2671 62.0788 31.9918 61.1725 31.9435 60.2402C31.8715 58.8971 32.2736 57.5715 33.0796 56.4947C33.8856 55.4179 35.0441 54.6585 36.353 54.349C37.6619 54.0395 39.038 54.1996 40.2408 54.8014C41.4437 55.4032 42.3969 56.4084 42.9341 57.6415C43.7946 58.8358 44.7637 59.9479 45.8292 60.9636C44.5876 58.6441 43.8747 56.0786 43.7414 53.4511C43.2252 43.5716 50.8165 35.1448 60.6967 34.6286C61.7309 34.5747 62.7679 34.61 63.7961 34.7341C63.9045 34.5885 64.004 34.4333 64.0939 34.2684C64.9116 32.7161 64.8715 30.8415 63.3111 29.6829C62.4436 29.0189 60.566 28.8897 60.7621 30.0788C60.9485 30.7561 62.4919 31.2344 62.1777 32.4346C62.0173 32.9493 61.6845 33.2977 61.3481 33.4752C58.8258 35.0646 56.3771 32.22 56.8324 29.6532C57.1362 27.942 58.3067 26.894 59.6547 26.1825C62.018 25.1086 64.7668 26.0711 66.3443 28.0816C68.0585 30.3157 68.0332 32.9902 66.8523 35.378C68.1096 35.7618 69.3208 36.2828 70.4641 36.9317C70.8821 36.8227 71.2697 36.6198 71.5975 36.3383C72.4754 35.5614 72.8898 34.3805 72.1879 33.2895C71.801 32.6716 70.6572 32.1494 70.5012 32.9382C70.4574 33.4054 71.3115 34.0671 70.8325 34.743C70.6482 34.9901 70.3733 35.1538 70.0682 35.1983C68.1179 35.5978 67.2571 33.2457 68.1454 31.7476C68.7373 30.7494 69.7147 30.3706 70.7255 30.2422C72.4538 30.127 73.9459 31.3748 74.4591 33.0028C75.0741 35.0289 74.1799 36.885 72.5415 38.1179C72.4947 38.1498 72.4479 38.1773 72.4018 38.207C76.4852 41.284 79.231 46.0782 79.5185 51.5854C79.7317 55.5616 78.6085 59.4947 76.3278 62.7587C76.9498 62.2909 77.5484 61.7927 78.1214 61.2659C78.5701 60.0175 79.437 58.963 80.5751 58.2814C81.7131 57.5998 83.052 57.3332 84.3643 57.5269C85.6766 57.7207 86.8814 58.3627 87.774 59.3441C88.6665 60.3254 89.1918 61.5855 89.2606 62.9102C89.3913 65.3515 87.9713 67.5106 85.8634 68.4494Z" fill="#147AA9"/>
<path d="M50.4616 48.8652C50.4616 48.8652 65.6671 67.7843 77.8297 51.744C79.5216 51.585 44.8489 110.119 50.4616 48.8652Z" fill="#147AA9"/>
</svg>
