<svg width="86" height="84" viewBox="0 0 86 84" fill="none" xmlns="http://www.w3.org/2000/svg">
<path d="M76.7293 54.6595C74.8924 51.1364 72.6816 47.8212 70.1353 44.7712C67.591 41.7098 64.6997 38.9543 61.5194 36.5602C59.8409 35.2836 58.0737 34.1283 56.2311 33.1028C54.4339 32.0889 52.5026 31.3334 50.4944 30.8588C47.8481 30.2901 45.1008 30.4004 42.5086 31.1795C39.8969 31.9621 37.4842 33.2976 35.4345 35.0954C33.395 36.8851 31.7877 39.1138 30.7333 41.6139C30.5931 41.9179 30.5029 42.2459 30.387 42.5615L30.2214 43.0387L30.1382 43.277L30.0757 43.5222L29.825 44.5021C29.8049 44.5839 29.7808 44.6647 29.7639 44.7472L29.7215 44.997L29.6361 45.4963C29.5201 46.1619 29.4394 46.8332 29.3944 47.5074C29.3632 47.8439 29.377 48.1841 29.3653 48.5219C29.3506 48.8602 29.3539 49.1991 29.3752 49.537L29.4322 50.5518C29.4598 50.8895 29.5155 51.2251 29.5548 51.5617L29.6154 52.0667C29.6355 52.2351 29.677 52.4005 29.7066 52.5675L29.8993 53.5675C29.9781 53.8977 30.0723 54.2245 30.1573 54.5533L30.2876 55.046C30.3364 55.2086 30.396 55.368 30.4495 55.5293L30.7774 56.4944L31.1697 57.4353L31.3658 57.9058L31.594 58.3614L32.0501 59.2725L32.5686 60.1486L32.8281 60.5865L33.1173 61.0047L33.696 61.8406L34.3311 62.6328C34.4382 62.7637 34.539 62.9002 34.6509 63.0268L34.9963 63.3977C35.2278 63.6433 35.4526 63.8971 35.6885 64.1369C37.6012 66.0304 39.9089 67.4776 42.4463 68.3748C43.6907 68.8137 44.9895 69.0796 46.3063 69.1649C47.5959 69.2432 48.8894 69.1043 50.133 68.7538C50.3245 68.7077 50.5121 68.6466 50.694 68.5713L51.2487 68.368C51.6127 68.2162 51.9674 68.0426 52.3106 67.8483C53.0075 67.4602 53.6596 66.9965 54.2551 66.4657C54.8577 65.9256 55.4106 65.3323 55.907 64.6932C56.4064 64.0443 56.8492 63.3537 57.2307 62.6291C58.0035 61.1631 58.5437 59.5858 58.8319 57.9537C59.1228 56.2894 59.2209 54.5971 59.1242 52.9103C59.0792 52.0599 59.0019 51.2074 58.8777 50.3576C58.7502 49.5085 58.59 48.6618 58.4025 47.8188L58.2549 47.1878C58.204 46.9777 58.1436 46.7694 58.0885 46.5601L57.7507 45.3054C57.6402 44.8865 57.4916 44.4784 57.3641 44.0642C57.2265 43.6531 57.111 43.2347 56.9557 42.8295C55.7802 39.5547 54.2729 36.4086 52.4574 33.4403C50.62 30.4708 48.5336 27.6628 46.2207 25.0466C43.8906 22.4332 41.3658 20 38.6682 17.7679C35.9676 15.5315 33.1174 13.4823 30.1374 11.6346C27.1587 9.77681 24.0556 8.12644 20.8501 6.69515C16.9792 4.9632 12.9803 3.53278 8.88913 2.41664L8.17901 2.21814C7.94573 2.16087 7.71768 2.10487 7.49485 2.05014L6.21998 1.72829C5.41329 1.50685 4.67438 1.36012 4.01441 1.19666C2.69542 0.861553 1.65802 0.647852 0.86902 0.431277C-0.280938 0.122568 -0.263187 -0.0178004 0.765866 0.0017991C1.27976 0.0148274 2.04846 0.0550075 3.04491 0.159508C3.54121 0.223546 4.09413 0.300005 4.70367 0.388884L5.65714 0.531716C5.98589 0.595511 6.32784 0.661854 6.68297 0.730745C10.4347 1.46008 14.1191 2.50109 17.6978 3.84293C21.785 5.37353 25.7405 7.23494 29.5251 9.40866C29.9961 9.68283 30.4595 9.97011 30.9271 10.2501C31.3913 10.5357 31.8661 10.8045 32.3216 11.104L33.6862 12.0048L34.3686 12.455C34.595 12.6066 34.8135 12.7698 35.0363 12.9266C35.9213 13.5627 36.8205 14.1796 37.6733 14.8592L38.9685 15.857C39.3922 16.1996 39.8078 16.5524 40.2279 16.8995C41.917 18.2779 43.5192 19.7626 45.0662 21.3008C46.6169 22.8389 48.0889 24.4544 49.4764 26.1412C50.8748 27.8247 52.1786 29.5845 53.3817 31.4126C54.5975 33.2397 55.6992 35.1402 56.6803 37.1033L57.0851 37.9207L57.2884 38.3309L57.4751 38.7499C57.7217 39.3102 57.9764 39.8698 58.2183 40.436C58.4425 41.0101 58.6669 41.5848 58.8915 42.1601C59.1107 42.7374 59.2926 43.3286 59.4933 43.9121C59.7016 44.4935 59.8521 45.092 60.0213 45.6826C60.1036 45.9787 60.1858 46.2743 60.2679 46.5692C60.3395 46.8675 60.411 47.1651 60.4823 47.462C60.7495 48.644 60.9546 49.8392 61.0968 51.0427C61.3337 52.9577 61.3629 54.8926 61.184 56.8138C61.0046 58.7692 60.5309 60.6862 59.7791 62.5001C59.0096 64.3346 57.9219 66.0186 56.5663 67.4745C55.8719 68.2047 55.1028 68.86 54.2715 69.4296C53.8528 69.7168 53.4174 69.979 52.9677 70.2147L52.2811 70.5504L51.5692 70.8292C51.0939 71.0131 50.607 71.1657 50.1118 71.286C49.8663 71.3526 49.6171 71.4045 49.3655 71.4415C49.1151 71.4847 48.8649 71.5325 48.6139 71.5702C47.6101 71.6872 46.5968 71.6983 45.5907 71.6033C43.6051 71.4147 41.6668 70.8861 39.8604 70.0406C38.0718 69.2116 36.4083 68.1358 34.9185 66.8447C33.4448 65.5522 32.1516 64.0675 31.0735 62.4304C29.4607 60.0179 28.2872 57.3391 27.6074 54.5178C27.5053 54.1701 27.451 53.811 27.3801 53.4557C27.3164 53.099 27.2353 52.7453 27.1868 52.386L27.0607 51.3051C27.0434 51.1245 27.0134 50.9453 27.0068 50.7637L26.9834 50.2194C26.97 49.8567 26.9489 49.4939 26.9428 49.1309L26.9762 48.0406L26.9956 47.4957L27.0529 46.9525L27.1694 45.8667L27.3681 44.7911L27.4687 44.2538C27.5098 44.0762 27.5616 43.9008 27.6077 43.7242L27.8942 42.6674C28.0058 42.3199 28.1383 41.9786 28.26 41.6343C28.7553 40.255 29.4174 38.9416 30.2318 37.7232C30.6334 37.1143 31.0669 36.5271 31.5304 35.9638C31.9964 35.4051 32.4905 34.8703 33.0107 34.3617C34.0485 33.3453 35.1849 32.4348 36.4032 31.6438C38.5811 30.2248 41.0079 29.2311 43.5555 28.7151C46.122 28.1997 48.7706 28.2552 51.3133 28.8778C53.8368 29.4945 56.1772 30.5882 58.3525 31.8578C60.5141 33.1346 62.5799 34.5673 64.5333 36.1444C72.3455 42.4423 78.3142 50.8894 81.869 60.2214C82.5606 62.058 83.152 63.9309 83.6404 65.8317C84.1021 67.6658 84.4565 69.5253 84.7018 71.4006C84.9315 73.1921 85.0537 74.9958 85.0677 76.8019C85.0535 77.6822 85.0497 78.548 84.9861 79.4006C84.9477 80.2527 84.8549 81.0895 84.767 81.91C84.7053 82.4648 84.611 83.0154 84.4846 83.5591C84.4169 83.9063 84.3138 84.0467 84.2469 83.9865C84.1006 83.8653 83.9276 82.9281 83.7527 81.202C83.7424 80.8972 83.732 80.5915 83.7216 80.2849C83.7012 79.9788 83.6807 79.6719 83.6602 79.3641C83.6383 79.0567 83.6235 78.7485 83.5963 78.4403C83.5656 78.1324 83.5349 77.8238 83.504 77.5145C83.4474 76.8962 83.3743 76.2774 83.3017 75.6568C83.2395 75.0353 83.1403 74.4158 83.0496 73.7944C82.6697 71.2979 82.1307 68.8282 81.4358 66.4004C80.2967 62.3402 78.7378 58.4097 76.7844 54.6725C76.7658 54.6691 76.7475 54.6648 76.7293 54.6595Z" fill="#E38691"/>
</svg>
